<svg width="1356" height="894" viewBox="0 0 1356 894" fill="none" xmlns="http://www.w3.org/2000/svg">
<path d="M911 229H1020M1129 229H1020M1020 229V690" stroke="white" stroke-width="59" stroke-linecap="square"/>
<path d="M606 231V201.5L576.5 231H606ZM606 679H576.5L627.011 699.708L606 679ZM811 231H840.5L811 201.5V231ZM781.5 679V708.5H840.5V679H781.5ZM576.5 231V679H635.5V231H576.5ZM627.011 699.708L832.011 491.708L789.989 450.292L584.989 658.292L627.011 699.708ZM840.5 471V231H781.5V471H840.5ZM811 201.5H606V260.5H811V201.5ZM781.5 471V679H840.5V471H781.5Z" fill="white"/>
<path d="M258 690V437.148M375.346 322.117L258 206V437.148M375.346 322.117L484 206V690M375.346 322.117L316.673 379.632L258 437.148" stroke="white" stroke-width="59" stroke-linejoin="bevel"/>
<rect x="79" y="84" width="1198" height="726" stroke="white" stroke-width="45"/>
</svg>
