{
    "asset" : {
        "generator" : "Khronos glTF Blender I/O v1.8.19",
        "version" : "2.0"
    },
    "scene" : 0,
    "scenes" : [
        {
            "name" : "Scene",
            "nodes" : [
                7
            ]
        }
    ],
    "nodes" : [
        {
            "mesh" : 0,
            "name" : "A",
            "rotation" : [
                0.7071067690849304,
                0,
                0,
                0.7071068286895752
            ],
            "scale" : [
                0.057540085166692734,
                0.24280507862567902,
                0.8777262568473816
            ],
            "translation" : [
                0.4993252754211426,
                2.5629870891571045,
                0.42942968010902405
            ]
        },
        {
            "mesh" : 1,
            "name" : "A.001",
            "rotation" : [
                0,
                0.7071068286895752,
                -0.7071067690849304,
                5.338507946817117e-08
            ],
            "scale" : [
                0.057540085166692734,
                0.24280507862567902,
                0.8777262568473816
            ],
            "translation" : [
                -0.4974728524684906,
                2.5629870891571045,
                -0.4384222626686096
            ]
        },
        {
            "mesh" : 2,
            "name" : "Cube",
            "rotation" : [
                0.7071067690849304,
                0,
                0,
                0.7071068286895752
            ],
            "scale" : [
                0.05830710008740425,
                0.27237170934677124,
                0.8823102116584778
            ],
            "translation" : [
                -1.501229166984558,
                2.556349277496338,
                0.4055516719818115
            ]
        },
        {
            "mesh" : 3,
            "name" : "Cube.001",
            "rotation" : [
                0,
                0.7071068286895752,
                -0.7071067690849304,
                5.338507946817117e-08
            ],
            "scale" : [
                0.05830710008740425,
                0.27237170934677124,
                0.8823102116584778
            ],
            "translation" : [
                1.5030814409255981,
                2.556349277496338,
                -0.41454392671585083
            ]
        },
        {
            "mesh" : 4,
            "name" : "Cylinder",
            "rotation" : [
                0.7071067690849304,
                0,
                0,
                0.7071068286895752
            ],
            "scale" : [
                2.094388723373413,
                0.5738511085510254,
                2.0942656993865967
            ],
            "translation" : [
                0,
                2.6490581035614014,
                0
            ]
        },
        {
            "mesh" : 5,
            "name" : "T",
            "rotation" : [
                0.7071067690849304,
                0,
                0,
                0.7071068286895752
            ],
            "scale" : [
                0.06596998125314713,
                0.24280507862567902,
                0.911066472530365
            ],
            "translation" : [
                1.277994155883789,
                2.607100486755371,
                0.42942968010902405
            ]
        },
        {
            "mesh" : 6,
            "name" : "T.001",
            "rotation" : [
                0,
                0.7071068286895752,
                -0.7071067690849304,
                5.338507946817117e-08
            ],
            "scale" : [
                0.06596998125314713,
                0.24280507862567902,
                0.911066472530365
            ],
            "translation" : [
                -1.276141881942749,
                2.607100486755371,
                -0.43842238187789917
            ]
        },
        {
            "children" : [
                0,
                1,
                2,
                3,
                4,
                5,
                6
            ],
            "name" : "Empty",
            "rotation" : [
                0,
                0.007355001289397478,
                0,
                0.999972939491272
            ]
        }
    ],
    "animations" : [
        {
            "channels" : [
                {
                    "sampler" : 0,
                    "target" : {
                        "node" : 7,
                        "path" : "rotation"
                    }
                }
            ],
            "name" : "EmptyAction",
            "samplers" : [
                {
                    "input" : 25,
                    "interpolation" : "LINEAR",
                    "output" : 26
                }
            ]
        }
    ],
    "materials" : [
        {
            "doubleSided" : true,
            "name" : "Material.003",
            "pbrMetallicRoughness" : {
                "baseColorFactor" : [
                    0.800000011920929,
                    0.800000011920929,
                    0.800000011920929,
                    1
                ],
                "metallicFactor" : 0,
                "roughnessFactor" : 0.5
            }
        },
        {
            "doubleSided" : true,
            "name" : "Material.002",
            "pbrMetallicRoughness" : {}
        }
    ],
    "meshes" : [
        {
            "name" : "Cube.002",
            "primitives" : [
                {
                    "attributes" : {
                        "POSITION" : 0,
                        "NORMAL" : 1,
                        "TEXCOORD_0" : 2
                    },
                    "indices" : 3,
                    "material" : 0
                }
            ]
        },
        {
            "name" : "Cube.008",
            "primitives" : [
                {
                    "attributes" : {
                        "POSITION" : 4,
                        "NORMAL" : 5,
                        "TEXCOORD_0" : 6
                    },
                    "indices" : 3,
                    "material" : 0
                }
            ]
        },
        {
            "name" : "Cube.007",
            "primitives" : [
                {
                    "attributes" : {
                        "POSITION" : 7,
                        "NORMAL" : 8,
                        "TEXCOORD_0" : 9
                    },
                    "indices" : 10,
                    "material" : 0
                }
            ]
        },
        {
            "name" : "Cube.010",
            "primitives" : [
                {
                    "attributes" : {
                        "POSITION" : 11,
                        "NORMAL" : 12,
                        "TEXCOORD_0" : 13
                    },
                    "indices" : 10,
                    "material" : 0
                }
            ]
        },
        {
            "name" : "Cylinder.002",
            "primitives" : [
                {
                    "attributes" : {
                        "POSITION" : 14,
                        "NORMAL" : 15,
                        "TEXCOORD_0" : 16
                    },
                    "indices" : 17,
                    "material" : 1
                }
            ]
        },
        {
            "name" : "Cube.003",
            "primitives" : [
                {
                    "attributes" : {
                        "POSITION" : 18,
                        "NORMAL" : 19,
                        "TEXCOORD_0" : 20
                    },
                    "indices" : 21,
                    "material" : 0
                }
            ]
        },
        {
            "name" : "Cube.009",
            "primitives" : [
                {
                    "attributes" : {
                        "POSITION" : 22,
                        "NORMAL" : 23,
                        "TEXCOORD_0" : 24
                    },
                    "indices" : 21,
                    "material" : 0
                }
            ]
        }
    ],
    "accessors" : [
        {
            "bufferView" : 0,
            "componentType" : 5126,
            "count" : 232,
            "max" : [
                1,
                1,
                1.0335073471069336
            ],
            "min" : [
                -15.476409912109375,
                -1,
                -1.1028305292129517
            ],
            "type" : "VEC3"
        },
        {
            "bufferView" : 1,
            "componentType" : 5126,
            "count" : 232,
            "type" : "VEC3"
        },
        {
            "bufferView" : 2,
            "componentType" : 5126,
            "count" : 232,
            "type" : "VEC2"
        },
        {
            "bufferView" : 3,
            "componentType" : 5123,
            "count" : 450,
            "type" : "SCALAR"
        },
        {
            "bufferView" : 4,
            "componentType" : 5126,
            "count" : 232,
            "max" : [
                1,
                1,
                1.0335073471069336
            ],
            "min" : [
                -15.476409912109375,
                -1,
                -1.1028305292129517
            ],
            "type" : "VEC3"
        },
        {
            "bufferView" : 5,
            "componentType" : 5126,
            "count" : 232,
            "type" : "VEC3"
        },
        {
            "bufferView" : 6,
            "componentType" : 5126,
            "count" : 232,
            "type" : "VEC2"
        },
        {
            "bufferView" : 7,
            "componentType" : 5126,
            "count" : 182,
            "max" : [
                15.018917083740234,
                1,
                1.0064367055892944
            ],
            "min" : [
                -1,
                -1,
                -1.0953510999679565
            ],
            "type" : "VEC3"
        },
        {
            "bufferView" : 8,
            "componentType" : 5126,
            "count" : 182,
            "type" : "VEC3"
        },
        {
            "bufferView" : 9,
            "componentType" : 5126,
            "count" : 182,
            "type" : "VEC2"
        },
        {
            "bufferView" : 10,
            "componentType" : 5123,
            "count" : 372,
            "type" : "SCALAR"
        },
        {
            "bufferView" : 11,
            "componentType" : 5126,
            "count" : 182,
            "max" : [
                15.018917083740234,
                1,
                1.0064367055892944
            ],
            "min" : [
                -1,
                -1,
                -1.0953510999679565
            ],
            "type" : "VEC3"
        },
        {
            "bufferView" : 12,
            "componentType" : 5126,
            "count" : 182,
            "type" : "VEC3"
        },
        {
            "bufferView" : 13,
            "componentType" : 5126,
            "count" : 182,
            "type" : "VEC2"
        },
        {
            "bufferView" : 14,
            "componentType" : 5126,
            "count" : 540,
            "max" : [
                0.9993908405303955,
                1,
                1
            ],
            "min" : [
                -0.9993908405303955,
                -1,
                -1
            ],
            "type" : "VEC3"
        },
        {
            "bufferView" : 15,
            "componentType" : 5126,
            "count" : 540,
            "type" : "VEC3"
        },
        {
            "bufferView" : 16,
            "componentType" : 5126,
            "count" : 540,
            "type" : "VEC2"
        },
        {
            "bufferView" : 17,
            "componentType" : 5123,
            "count" : 1068,
            "type" : "SCALAR"
        },
        {
            "bufferView" : 18,
            "componentType" : 5126,
            "count" : 94,
            "max" : [
                6.794177532196045,
                1,
                1
            ],
            "min" : [
                -7.082861423492432,
                -1,
                -1
            ],
            "type" : "VEC3"
        },
        {
            "bufferView" : 19,
            "componentType" : 5126,
            "count" : 94,
            "type" : "VEC3"
        },
        {
            "bufferView" : 20,
            "componentType" : 5126,
            "count" : 94,
            "type" : "VEC2"
        },
        {
            "bufferView" : 21,
            "componentType" : 5123,
            "count" : 180,
            "type" : "SCALAR"
        },
        {
            "bufferView" : 22,
            "componentType" : 5126,
            "count" : 94,
            "max" : [
                6.794177532196045,
                1,
                1
            ],
            "min" : [
                -7.082861423492432,
                -1,
                -1
            ],
            "type" : "VEC3"
        },
        {
            "bufferView" : 23,
            "componentType" : 5126,
            "count" : 94,
            "type" : "VEC3"
        },
        {
            "bufferView" : 24,
            "componentType" : 5126,
            "count" : 94,
            "type" : "VEC2"
        },
        {
            "bufferView" : 25,
            "componentType" : 5126,
            "count" : 251,
            "max" : [
                10
            ],
            "min" : [
                -0.4166666666666667
            ],
            "type" : "SCALAR"
        },
        {
            "bufferView" : 26,
            "componentType" : 5126,
            "count" : 251,
            "type" : "VEC4"
        }
    ],
    "bufferViews" : [
        {
            "buffer" : 0,
            "byteLength" : 2784,
            "byteOffset" : 0
        },
        {
            "buffer" : 0,
            "byteLength" : 2784,
            "byteOffset" : 2784
        },
        {
            "buffer" : 0,
            "byteLength" : 1856,
            "byteOffset" : 5568
        },
        {
            "buffer" : 0,
            "byteLength" : 900,
            "byteOffset" : 7424
        },
        {
            "buffer" : 0,
            "byteLength" : 2784,
            "byteOffset" : 8324
        },
        {
            "buffer" : 0,
            "byteLength" : 2784,
            "byteOffset" : 11108
        },
        {
            "buffer" : 0,
            "byteLength" : 1856,
            "byteOffset" : 13892
        },
        {
            "buffer" : 0,
            "byteLength" : 2184,
            "byteOffset" : 15748
        },
        {
            "buffer" : 0,
            "byteLength" : 2184,
            "byteOffset" : 17932
        },
        {
            "buffer" : 0,
            "byteLength" : 1456,
            "byteOffset" : 20116
        },
        {
            "buffer" : 0,
            "byteLength" : 744,
            "byteOffset" : 21572
        },
        {
            "buffer" : 0,
            "byteLength" : 2184,
            "byteOffset" : 22316
        },
        {
            "buffer" : 0,
            "byteLength" : 2184,
            "byteOffset" : 24500
        },
        {
            "buffer" : 0,
            "byteLength" : 1456,
            "byteOffset" : 26684
        },
        {
            "buffer" : 0,
            "byteLength" : 6480,
            "byteOffset" : 28140
        },
        {
            "buffer" : 0,
            "byteLength" : 6480,
            "byteOffset" : 34620
        },
        {
            "buffer" : 0,
            "byteLength" : 4320,
            "byteOffset" : 41100
        },
        {
            "buffer" : 0,
            "byteLength" : 2136,
            "byteOffset" : 45420
        },
        {
            "buffer" : 0,
            "byteLength" : 1128,
            "byteOffset" : 47556
        },
        {
            "buffer" : 0,
            "byteLength" : 1128,
            "byteOffset" : 48684
        },
        {
            "buffer" : 0,
            "byteLength" : 752,
            "byteOffset" : 49812
        },
        {
            "buffer" : 0,
            "byteLength" : 360,
            "byteOffset" : 50564
        },
        {
            "buffer" : 0,
            "byteLength" : 1128,
            "byteOffset" : 50924
        },
        {
            "buffer" : 0,
            "byteLength" : 1128,
            "byteOffset" : 52052
        },
        {
            "buffer" : 0,
            "byteLength" : 752,
            "byteOffset" : 53180
        },
        {
            "buffer" : 0,
            "byteLength" : 1004,
            "byteOffset" : 53932
        },
        {
            "buffer" : 0,
            "byteLength" : 4016,
            "byteOffset" : 54936
        }
    ],
    "buffers" : [
        {
            "byteLength" : 58952,
            "uri" : "data:application/octet-stream;base64,"
        }
    ]
}
